<?xml version="1.0" encoding="UTF-8" standalone="no"?>
<svg width="159px" height="126px" viewBox="0 0 159 126" version="1.1" xmlns="http://www.w3.org/2000/svg" xmlns:xlink="http://www.w3.org/1999/xlink" xmlns:sketch="http://www.bohemiancoding.com/sketch/ns">
    <!-- Generator: Sketch 3.3.3 (12081) - http://www.bohemiancoding.com/sketch -->
    <title>Slice 1</title>
    <desc>Created with Sketch.</desc>
    <defs></defs>
    <g id="Page-1" stroke="none" stroke-width="1" fill="none" fill-rule="evenodd" sketch:type="MSPage">
        <g id="Group-Copy-+-1445895112_Location-Copy-2-Copy-Copy" sketch:type="MSLayerGroup" transform="translate(2.000000, 2.000000)">
            <g id="Group-Copy" transform="translate(8.378378, 0.000000)" sketch:type="MSShapeGroup">
                <path d="M0,60.7928422 C0,60.7928422 4.78209519,36.917005 5.20359861,28.9947603 C5.58725476,21.7838632 6.35456704,7.36206897 6.35456704,7.36206897 C6.35456704,7.36206897 7.56230639,2.17961026e-14 17.2242212,0 L58.2873591,0 C58.2873591,0 59.4155251,0.458467353 60.8916536,1.5735654 C62.8306711,3.03833936 65.3700982,5.63612997 66.7415346,9.81609195 C69.1570133,17.1781609 78.8189281,44.6982759 78.8189281,44.6982759 L125.675676,47.8534493 C125.675676,47.8534493 132.449634,47.8534483 134.865112,56.4425287 C137.280591,65.0316092 131.959459,88.3448276 131.959459,88.3448276 L113.108108,72.5689655 L53.4121622,41.0172414 L31.4189189,34.7068966" id="Path-12" fill="#F88D1C"></path>
                <path d="M98.1427577,46.6264368 L98.1427577,11.0431034 L106.596933,1.22701149" id="Path-13" stroke="#F88D1C" stroke-width="6.14250007"></path>
            </g>
            <g id="1445895112_Location-Copy-2" transform="translate(77.698276, 77.288211) rotate(-90.000000) translate(-77.698276, -77.288211) translate(33.698276, -0.211789)" stroke="#FFFFFF" stroke-width="2.45700003" fill="#4F2411" sketch:type="MSShapeGroup">
                <path d="M43.9864865,0 C19.6929499,0 0,19.7761904 0,44.1724138 C0,68.5686371 43.9864865,128.501567 43.9864865,128.501567 C43.9864865,128.501567 87.972973,68.5686371 87.972973,44.1724138 C87.972973,19.7761904 68.280023,0 43.9864865,0 L43.9864865,0 Z M7.997543,44.1724138 C7.997543,24.2426238 24.1405835,8.03134796 43.9864865,8.03134796 C63.8323894,8.03134796 79.97543,24.2426238 79.97543,44.1724138 C79.97543,58.0545987 59.9735749,91.5684099 43.9864865,114.685641 C27.999398,91.5684099 7.997543,58.0545987 7.997543,44.1724138 L7.997543,44.1724138 Z M43.9864865,24.0940439 C32.9428793,24.0940439 23.992629,33.0821262 23.992629,44.1724138 C23.992629,55.2627014 32.9428793,64.2507837 43.9864865,64.2507837 C55.0300937,64.2507837 63.980344,55.2627014 63.980344,44.1724138 C63.980344,33.0821262 55.0300937,24.0940439 43.9864865,24.0940439 L43.9864865,24.0940439 Z M43.9864865,114.446708 C32.9428793,114.446708 23.992629,123.434791 23.992629,134.525078 C23.992629,145.615366 32.9428793,154.603448 43.9864865,154.603448 C55.0300937,154.603448 63.980344,145.615366 63.980344,134.525078 C63.980344,123.434791 55.0300937,114.446708 43.9864865,114.446708 L43.9864865,114.446708 Z M43.9864865,56.2194357 C37.3715187,56.2194357 31.990172,50.8153425 31.990172,44.1724138 C31.990172,37.5294851 37.3715187,32.1253918 43.9864865,32.1253918 C50.6014542,32.1253918 55.982801,37.5294851 55.982801,44.1724138 C55.982801,50.8153425 50.6014542,56.2194357 43.9864865,56.2194357 L43.9864865,56.2194357 Z" id="Shape"></path>
            </g>
        </g>
    </g>
</svg>