<?xml version="1.0" encoding="UTF-8" standalone="no"?>
<svg width="234px" height="206px" viewBox="0 0 234 206" version="1.1" xmlns="http://www.w3.org/2000/svg" xmlns:xlink="http://www.w3.org/1999/xlink" xmlns:sketch="http://www.bohemiancoding.com/sketch/ns">
    <!-- Generator: Sketch 3.3.3 (12081) - http://www.bohemiancoding.com/sketch -->
    <title>Slice 1</title>
    <desc>Created with Sketch.</desc>
    <defs></defs>
    <g id="Page-1" stroke="none" stroke-width="1" fill="none" fill-rule="evenodd" sketch:type="MSPage">
        <path d="M121.9995,64.7505 L101.499,3.2505 L30.4995,4.7505 L21.999,65.2495 C21.999,65.2495 8.95750836,73.7505035 -4.4408921e-15,109.7495 L3.999,115.25 C15.9575084,93 37.5718507,75.5823843 68.411,79.059 C94.4989968,82 132.0705,107.5665 168.486,128.75 C168.486,128.75 180.4995,105.7505 203.499,108.2495 C203.499,108.2495 214.9995,108.7505 222.4995,117.2495 C222.4995,117.2495 231,120.2505 231,116.25 L231,73.7505 C231,73.7505 231,64.2495 219.4995,64.2495 L178.452,64.2495 L178.452,14.25 L186.8745,1.5 L181.4535,0 L172.179,13.5 L171,64.7505 L121.9995,64.7505 Z" id="Imported-Layers" fill="#686868" sketch:type="MSShapeGroup"></path>
        <g id="Imported-Layers" sketch:type="MSLayerGroup" transform="translate(6.000000, 87.000000)">
            <path d="M57.8048735,115.632157 C25.9847061,115.632157 0.102280932,89.8583007 0.102280932,58.1722475 C0.102280932,26.4861942 25.9847061,0.712337565 57.8048735,0.712337565 C79.9688255,0.712337565 133.477159,32.6474599 170.385679,58.1722475 C133.477159,83.697035 79.9688255,115.632157 57.8048735,115.632157 L57.8048735,115.632157 Z M56.5228065,81.5991073 C68.8676903,81.5991073 78.8751569,71.5916407 78.8751569,59.2467569 C78.8751569,46.9018731 68.8676903,36.8944065 56.5228065,36.8944065 C44.1779227,36.8944065 34.1704561,46.9018731 34.1704561,59.2467569 C34.1704561,71.5916407 44.1779227,81.5991073 56.5228065,81.5991073 L56.5228065,81.5991073 Z" id="Stroke-4" stroke="#989898" stroke-width="5.45699978" sketch:type="MSShapeGroup"></path>
            <path d="M195.024763,89 C212.421053,89 226.524763,74.8962895 226.524763,57.5 C226.524763,40.1037105 212.421053,26 195.024763,26 C181.977132,26 170.781368,33.9330263 166,45.2382105 L184.775658,58.0222368 L166.364737,70.5807895 C170.570816,80.1932632 181.139895,89 195.024763,89" fill="#989898" sketch:type="MSShapeGroup"></path>
        </g>
    </g>
</svg>