<?xml version="1.0" encoding="UTF-8" standalone="no"?>
<svg width="301px" height="75px" viewBox="0 0 301 75" version="1.1" xmlns="http://www.w3.org/2000/svg" xmlns:xlink="http://www.w3.org/1999/xlink" xmlns:sketch="http://www.bohemiancoding.com/sketch/ns">
    <!-- Generator: Sketch 3.3.3 (12081) - http://www.bohemiancoding.com/sketch -->
    <title>Slice 1</title>
    <desc>Created with Sketch.</desc>
    <defs>
        <path id="path-1" d="M44.069,23.881 L36.784,2.029 L11.556,2.562 L8.536,24.059 C8.536,24.059 3.902,27.079 0.719,39.871 L2.14,41.825 C6.389,33.919 14.069,27.73 25.027,28.965 C34.297,30.011 47.647,39.095 60.586,46.622 C60.586,46.622 64.855,38.45 73.027,39.338 C73.027,39.338 77.114,39.516 79.779,42.536 C79.779,42.536 82.799,43.602 82.799,42.18 L82.799,27.079 C82.799,27.079 82.799,23.703 78.713,23.703 L64.127,23.703 L64.127,5.937 L67.12,1.407 L65.194,0.874 L61.899,5.671 L61.48,23.881 L44.069,23.881 L44.069,23.881 Z"></path>
        <path id="path-3" d="M11.148,22.411 C17.329,22.411 22.341,17.4 22.341,11.218 C22.341,5.037 17.329,0.026 11.148,0.026 C6.512,0.026 2.534,2.844 0.835,6.861 L7.506,11.404 L0.965,15.866 C2.459,19.282 6.214,22.411 11.148,22.411 L11.148,22.411 Z"></path>
    </defs>
    <g id="Page-1" stroke="none" stroke-width="1" fill="none" fill-rule="evenodd" sketch:type="MSPage">
        <g id="Imported-Layers" sketch:type="MSLayerGroup">
            <path d="M147.005,46.932 C147.005,50.194 143.87,52.839 140.003,52.839 C136.135,52.839 133,50.194 133,46.932 C133,43.67 136.135,41.026 140.003,41.026 C143.87,41.026 147.005,43.67 147.005,46.932" id="Fill-1" fill="#86C043" sketch:type="MSShapeGroup"></path>
            <path d="M134.629,49.061 C134.629,49.061 135.371,45.75 145.633,42.507 L145.75,50.125 L140.003,52.839 L134.629,52.218 L134.629,49.061" id="Fill-2" fill="#66B544" sketch:type="MSShapeGroup"></path>
            <path d="M215.917,60.793 C211.404,60.793 206.85,60.913 202.167,60.913 C202.167,58.974 202.178,57.467 202.178,55.656 C202.178,49.16 202.179,43.665 202.178,37.169 C202.178,32.902 202.177,32.734 197.704,32.375 L197.704,19.105 C202.277,19.105 206.917,18.863 211.516,19.19 C214.545,19.406 215.26,21.692 215.761,25.677 C218.937,21.661 222.698,18.947 227.799,18.99 C232.788,19.032 236.805,20.995 239.336,25.784 C242.232,22.068 245.836,19.951 250.296,19.239 C259.189,17.821 265.718,23.135 265.961,32.167 C266.082,36.661 266.014,41.16 266.025,45.657 C266.034,49.321 266.03,49.318 269.703,49.595 C270.021,49.619 270.375,49.646 270.764,49.63 L270.764,60.769 C265.879,60.769 261.078,61.093 256.312,60.769 C253.282,60.563 252.224,58.102 252.192,54.573 C252.142,48.994 252.181,44.414 252.176,38.835 C252.175,37.92 252.106,36.975 252.068,36.107 C252,34.563 251.438,32.438 250.004,32.127 C248.396,31.778 246.145,32.409 244.821,33.454 C241.54,36.042 241.2,40.066 241.071,43.899 C240.895,49.139 241.028,54.39 241.02,59.636 C241.019,60.118 240.99,60.157 240.945,60.769 L227.309,60.769 C227.256,59.926 227.187,59.496 227.186,58.624 C227.173,51.462 227.215,44.3 227.154,37.139 C227.137,35.125 227.504,32.76 224.886,31.89 C222.76,31.184 220.036,32.494 218.514,34.835 C216.377,38.121 216.131,41.879 216.05,45.624 C215.942,50.617 216.057,54.942 216.033,59.937 C216.032,60.087 216.031,60.484 215.917,60.793" id="Fill-3" fill="#1E2938" sketch:type="MSShapeGroup"></path>
            <path d="M135.75,33.292 C131.638,33.292 127.752,33.417 123.784,33.417 C124.292,28.583 126.083,21.125 132.963,19.176 C138.017,17.743 142.917,18.223 148.056,19.69 C154.843,21.534 158.616,26.38 158.927,33.739 C159.075,37.232 158.944,40.736 158.988,44.234 C159.051,49.342 158.356,48.73 163.465,49.462 L163.465,60.972 C158.804,60.972 154.75,61.292 149.447,60.379 C148.134,60.153 146.958,58.249 145.51,56.91 C143.138,59.503 139.75,61.331 135.617,61.846 C130.161,62.526 124.512,59.934 122.04,55.375 C119.607,50.887 120.174,44.982 123.524,41.403 C126.623,38.091 130.716,36.723 135.047,36.031 C138.239,35.52 141.463,35.212 144.705,34.81 C145.351,31.815 144.093,29.864 140.969,29.142 C138.243,28.513 135.531,30.053 135.75,33.292 L135.75,33.292 Z M144.842,42.507 C141.84,43.338 139.041,43.921 136.396,44.914 C134.66,45.566 133.941,47.293 134.629,49.061 C135.328,50.855 136.964,51.647 138.871,51.409 C142.63,50.941 145.376,47.238 144.842,42.507 L144.842,42.507 Z" id="Fill-4" fill="#1E2938" sketch:type="MSShapeGroup"></path>
            <path d="M100.992,33.488 L98.255,33.488 L96.103,33.488 L96.103,22.558 L100.658,22.558 C100.89,20.639 100.904,15.88 101.337,14.232 C102.985,7.97 107.832,4.262 115.376,3.578 C118.092,3.332 120.849,3.539 123.784,3.539 L123.784,14.883 C120.396,15.621 113.667,14 114.595,22.534 L122.24,22.534 L122.24,33.439 L114.703,33.439 L114.703,60.801 L100.992,60.801 L100.992,33.488" id="Fill-5" fill="#1E2938" sketch:type="MSShapeGroup"></path>
            <path d="M181.026,27.382 C184.543,21.989 188.786,18.371 195.734,19.077 L195.734,32.399 C195.031,32.432 194.393,32.492 193.755,32.488 C186.354,32.444 182.079,36.292 181.686,43.75 C181.419,48.813 181.567,53.898 181.522,58.973 C181.517,59.542 181.461,60.11 181.412,60.972 L172.667,60.972 L165.678,60.972 L165.678,57.546 C165.678,50.555 165.739,43.564 165.659,36.574 C165.595,30.948 166.491,31.795 161.123,31.029 L161.123,19.693 C165.734,19.693 170.37,19.432 174.958,19.786 C177.96,20.017 180.963,21.705 181.024,24.773 C181.041,25.642 181.026,26.512 181.026,27.382" id="Fill-6" fill="#1E2938" sketch:type="MSShapeGroup"></path>
            <path d="M268.538,31.13 L268.538,19.596 C273.066,19.596 277.546,19.377 281.992,19.67 C285.121,19.876 286.386,21.706 286.477,24.919 C286.5,25.721 286.48,26.523 286.48,27.164 C288.484,25.094 290.285,22.826 292.491,21.066 C294.817,19.209 297.698,18.578 300.935,19.149 L300.935,32.488 C300.149,32.488 299.351,32.49 298.552,32.488 C291.8,32.477 287.232,36.781 287.056,43.589 C286.91,49.245 287.026,54.907 287.026,60.769 L273.049,60.769 L273.049,51.827 L273.049,35.838 C273.048,31.549 273.048,31.549 268.538,31.13" id="Fill-7" fill="#1E2938" sketch:type="MSShapeGroup"></path>
            <path d="M44.069,23.881 L36.784,2.029 L11.556,2.562 L8.536,24.059 C8.536,24.059 3.902,27.079 0.719,39.871 L2.14,41.825 C6.389,33.919 14.069,27.73 25.027,28.965 C34.297,30.011 47.647,39.095 60.586,46.622 C60.586,46.622 64.855,38.45 73.027,39.338 C73.027,39.338 77.114,39.516 79.779,42.536 C79.779,42.536 82.799,43.602 82.799,42.18 L82.799,27.079 C82.799,27.079 82.799,23.703 78.713,23.703 L64.127,23.703 L64.127,5.937 L67.12,1.407 L65.194,0.874 L61.899,5.671 L61.48,23.881 L44.069,23.881" id="Fill-8" fill="#1E2938" sketch:type="MSShapeGroup"></path>
            <g id="Group-11">
                <mask id="mask-2" sketch:name="Clip 10" fill="white">
                    <use xlink:href="#path-1"></use>
                </mask>
                <g id="Clip-10"></g>
                <path d="M0.719,0.874 L82.799,0.874 L82.799,46.622 L0.719,46.622 L0.719,0.874 Z" id="Fill-9" fill="#1E2938" sketch:type="MSShapeGroup" mask="url(#mask-2)"></path>
            </g>
            <path d="M22.935,60.781 C27.322,60.781 30.877,57.225 30.877,52.839 C30.877,48.453 27.322,44.897 22.935,44.897 C18.549,44.897 14.993,48.453 14.993,52.839 C14.993,57.225 18.549,60.781 22.935,60.781 L22.935,60.781 Z M2.888,52.457 C2.888,41.198 12.084,32.04 23.391,32.04 C31.266,32.04 50.279,43.387 63.393,52.457 C50.279,61.527 31.266,72.874 23.391,72.874 C12.084,72.874 2.888,63.716 2.888,52.457 L2.888,52.457 Z" id="Fill-12" fill="#66B544" sketch:type="MSShapeGroup"></path>
            <path d="M22.935,60.781 C27.322,60.781 30.877,57.225 30.877,52.839 C30.877,48.453 27.322,44.897 22.935,44.897 C18.549,44.897 14.993,48.453 14.993,52.839 C14.993,57.225 18.549,60.781 22.935,60.781 L22.935,60.781 Z M2.888,52.457 C2.888,41.198 12.084,32.04 23.391,32.04 C31.266,32.04 50.279,43.387 63.393,52.457 C50.279,61.527 31.266,72.874 23.391,72.874 C12.084,72.874 2.888,63.716 2.888,52.457 L2.888,52.457 Z" id="Stroke-13" stroke="#67B545" stroke-width="3" sketch:type="MSShapeGroup"></path>
            <path d="M72.148,63.411 C78.329,63.411 83.341,58.4 83.341,52.218 C83.341,46.037 78.329,41.026 72.148,41.026 C67.512,41.026 63.534,43.844 61.835,47.861 L68.506,52.404 L61.965,56.866 C63.459,60.282 67.214,63.411 72.148,63.411" id="Fill-14" fill="#66B544" sketch:type="MSShapeGroup"></path>
            <g id="Group-17" transform="translate(61.000000, 41.000000)">
                <mask id="mask-4" sketch:name="Clip 16" fill="white">
                    <use xlink:href="#path-3"></use>
                </mask>
                <g id="Clip-16"></g>
                <path d="M0.835,0.026 L22.341,0.026 L22.341,22.411 L0.835,22.411 L0.835,0.026 Z" id="Fill-15" fill="#66B544" sketch:type="MSShapeGroup" mask="url(#mask-4)"></path>
            </g>
        </g>
    </g>
</svg>